<svg width="1280" height="1280" viewBox="0 0 1280 1280" fill="none" xmlns="http://www.w3.org/2000/svg">
<path d="M71.6484 777.454C71.6484 774.931 72.5436 772.775 74.334 770.984C76.1243 769.194 78.2809 768.299 80.8037 768.299L195.184 768.421H195.306C197.828 768.421 199.985 769.316 201.775 771.106C203.566 772.897 204.461 775.053 204.461 777.576C204.461 780.099 203.566 782.256 201.775 784.046C199.985 785.836 197.828 786.731 195.306 786.731H195.184L89.959 786.609L90.0811 843.982C90.3252 843.982 90.5286 843.982 90.6914 843.982C90.9355 843.901 91.139 843.86 91.3018 843.86L185.174 844.471C187.778 844.471 189.935 845.366 191.644 847.156C193.434 848.865 194.329 851.225 194.329 854.236C194.329 856.515 193.393 858.509 191.521 860.218C189.65 861.927 187.534 862.781 185.174 862.781H185.052L91.1797 862.171H90.2031L90.3252 918.934L195.184 918.812H195.306C197.828 918.812 199.985 919.707 201.775 921.497C203.566 923.287 204.461 925.444 204.461 927.967C204.461 930.49 203.566 932.646 201.775 934.437C199.985 936.227 197.828 937.122 195.306 937.122H195.184L81.1699 937.244C78.6471 937.244 76.4906 936.349 74.7002 934.559C72.9098 932.768 72.0146 930.612 72.0146 928.089L71.6484 777.454ZM231.927 786.609C229.404 786.609 227.247 785.714 225.457 783.924C223.667 782.052 222.771 779.855 222.771 777.332C222.771 774.972 223.748 772.815 225.701 770.862C227.736 768.909 229.526 767.933 231.072 767.933L368.523 768.177C370.965 768.177 373.081 769.072 374.871 770.862C376.743 772.653 377.679 774.769 377.679 777.21C377.679 779.57 376.987 781.564 375.604 783.191L252.435 918.812L364.983 919.422H365.105C367.791 919.422 369.988 920.358 371.697 922.229C373.406 924.101 374.261 926.421 374.261 929.188C374.261 932.199 373.04 934.274 370.599 935.413C368.157 936.552 366.245 937.122 364.861 937.122C364.78 937.122 364.739 937.081 364.739 937L232.903 937.122C230.381 937.122 228.224 936.268 226.434 934.559C224.643 932.768 223.748 930.612 223.748 928.089C223.748 925.729 224.44 923.735 225.823 922.107L348.992 786.487L232.049 786.609H231.927ZM404.656 863.392H497.674C500.034 863.392 502.028 864.246 503.655 865.955C505.364 867.583 506.219 869.576 506.219 871.937C506.219 874.297 505.364 876.331 503.655 878.04C502.028 879.668 500.034 880.481 497.674 880.481H404.656C402.296 880.481 400.262 879.668 398.553 878.04C396.925 876.331 396.111 874.297 396.111 871.937C396.111 869.576 396.925 867.583 398.553 865.955C400.262 864.246 402.296 863.392 404.656 863.392ZM533.074 777.21C533.074 774.687 533.969 772.531 535.76 770.74C537.55 768.95 539.707 768.055 542.229 768.055L641.717 767.933H641.839C644.362 767.933 646.518 768.828 648.309 770.618C650.099 772.409 650.994 774.565 650.994 777.088C650.994 779.611 650.099 781.767 648.309 783.558C646.518 785.348 644.362 786.243 641.839 786.243H641.717L551.385 786.365L551.507 837.757C551.914 837.757 552.239 837.716 552.483 837.635L618.157 837.024H619.5C621.616 837.024 623.447 838.001 624.993 839.954C626.621 841.907 627.435 843.738 627.435 845.447C627.435 848.214 626.58 850.574 624.871 852.527C623.162 854.399 620.965 855.335 618.279 855.335L552.728 855.945H551.629L551.751 929.065V929.31C551.751 931.832 550.856 933.989 549.065 935.779C547.275 937.57 545.118 938.465 542.596 938.465C540.073 938.465 537.916 937.57 536.126 935.779C534.336 933.989 533.44 931.832 533.44 929.31V929.188L533.074 777.21ZM750.604 767.811C762.566 767.811 773.512 770.008 783.44 774.402C793.45 778.797 802.076 784.941 809.319 792.835C816.562 800.729 822.137 809.925 826.043 820.423C830.031 830.84 832.024 842.111 832.024 854.236C832.024 870.431 828.606 884.998 821.771 897.938C814.935 910.796 805.413 920.968 793.206 928.455C780.999 935.942 766.798 939.686 750.604 939.686C734.165 939.686 719.842 935.983 707.635 928.577C695.428 921.09 685.988 910.918 679.314 898.06C672.641 885.201 669.305 870.594 669.305 854.236C669.305 842.355 671.299 831.206 675.286 820.789C679.274 810.291 684.889 801.095 692.132 793.201C699.456 785.226 708.082 779 718.011 774.524C727.939 770.049 738.803 767.811 750.604 767.811ZM750.604 786.487C737.908 786.487 726.84 789.458 717.4 795.398C707.96 801.258 700.636 809.314 695.428 819.568C690.219 829.741 687.615 841.297 687.615 854.236C687.615 863.188 689.202 871.692 692.376 879.749C695.631 887.724 700.107 894.845 705.804 901.111C711.582 907.296 718.255 912.179 725.823 915.76C733.473 919.34 741.733 921.131 750.604 921.131C759.393 921.131 767.612 919.259 775.262 915.516C782.993 911.772 789.747 906.727 795.525 900.379C801.385 894.031 805.942 886.87 809.197 878.895C812.452 870.919 814.08 862.7 814.08 854.236C814.08 840.809 811.272 829.008 805.657 818.836C800.123 808.663 792.555 800.729 782.952 795.032C773.431 789.336 762.648 786.487 750.604 786.487ZM868.523 936.878C866.001 936.878 863.844 935.983 862.054 934.192C860.263 932.402 859.368 930.245 859.368 927.723L859.002 777.698V777.576C859.002 775.053 859.897 772.897 861.688 771.106C863.478 769.316 865.634 768.421 868.157 768.421C870.68 768.421 872.837 769.316 874.627 771.106C876.417 772.897 877.312 775.053 877.312 777.576V777.698L877.679 918.567H973.26C975.783 918.567 977.939 919.463 979.729 921.253C981.52 923.043 982.415 925.2 982.415 927.723C982.415 930.245 981.52 932.402 979.729 934.192C977.939 935.983 975.783 936.878 973.26 936.878H868.523ZM1012.57 939.563C1010.04 939.563 1007.89 938.668 1006.1 936.878C1004.31 935.088 1003.41 932.931 1003.41 930.408V930.286L1003.29 776.966V776.844C1003.29 774.484 1004.14 772.368 1005.85 770.496C1007.64 768.624 1009.64 767.688 1011.83 767.688C1014.85 767.688 1017.21 768.584 1018.91 770.374C1020.7 772.083 1021.6 774.24 1021.6 776.844V776.966L1021.72 930.286V930.408C1021.72 932.931 1020.83 935.088 1019.04 936.878C1017.25 938.668 1015.09 939.563 1012.57 939.563ZM1130 767.811C1141.96 767.811 1152.91 770.008 1162.83 774.402C1172.84 778.797 1181.47 784.941 1188.71 792.835C1195.96 800.729 1201.53 809.925 1205.44 820.423C1209.43 830.84 1211.42 842.111 1211.42 854.236C1211.42 870.431 1208 884.998 1201.17 897.938C1194.33 910.796 1184.81 920.968 1172.6 928.455C1160.39 935.942 1146.19 939.686 1130 939.686C1113.56 939.686 1099.24 935.983 1087.03 928.577C1074.82 921.09 1065.38 910.918 1058.71 898.06C1052.04 885.201 1048.7 870.594 1048.7 854.236C1048.7 842.355 1050.69 831.206 1054.68 820.789C1058.67 810.291 1064.28 801.095 1071.53 793.201C1078.85 785.226 1087.48 779 1097.41 774.524C1107.33 770.049 1118.2 767.811 1130 767.811ZM1130 786.487C1117.3 786.487 1106.24 789.458 1096.79 795.398C1087.35 801.258 1080.03 809.314 1074.82 819.568C1069.61 829.741 1067.01 841.297 1067.01 854.236C1067.01 863.188 1068.6 871.692 1071.77 879.749C1075.03 887.724 1079.5 894.845 1085.2 901.111C1090.98 907.296 1097.65 912.179 1105.22 915.76C1112.87 919.34 1121.13 921.131 1130 921.131C1138.79 921.131 1147.01 919.259 1154.66 915.516C1162.39 911.772 1169.14 906.727 1174.92 900.379C1180.78 894.031 1185.34 886.87 1188.59 878.895C1191.85 870.919 1193.47 862.7 1193.47 854.236C1193.47 840.809 1190.67 829.008 1185.05 818.836C1179.52 808.663 1171.95 800.729 1162.35 795.032C1152.83 789.336 1142.04 786.487 1130 786.487Z" fill="black"/>
<path d="M397 284C397 272.954 405.954 264 417 264H715C726.046 264 735 272.954 735 284V349C735 360.046 726.046 369 715 369H417C405.954 369 397 360.046 397 349V284Z" fill="url(#paint0_linear_4_44)"/>
<path d="M545 443C545 431.954 553.954 423 565 423H863C874.046 423 883 431.954 883 443V508C883 519.046 874.046 528 863 528H565C553.954 528 545 519.046 545 508V443Z" fill="url(#paint1_linear_4_44)"/>
<path d="M883 316C883 345.271 859.271 369 830 369C800.729 369 777 345.271 777 316C777 286.729 800.729 263 830 263C859.271 263 883 286.729 883 316Z" fill="url(#paint2_linear_4_44)"/>
<path d="M397 604C397 592.954 405.954 584 417 584H715C726.046 584 735 592.954 735 604V669C735 680.046 726.046 689 715 689H417C405.954 689 397 680.046 397 669V604Z" fill="url(#paint3_linear_4_44)"/>
<path d="M883 636C883 665.271 859.271 689 830 689C800.729 689 777 665.271 777 636C777 606.729 800.729 583 830 583C859.271 583 883 606.729 883 636Z" fill="url(#paint4_linear_4_44)"/>
<path d="M503 476C503 505.271 479.271 529 450 529C420.729 529 397 505.271 397 476C397 446.729 420.729 423 450 423C479.271 423 503 446.729 503 476Z" fill="url(#paint5_linear_4_44)"/>
<defs>
<linearGradient id="paint0_linear_4_44" x1="640" y1="263" x2="640" y2="689" gradientUnits="userSpaceOnUse">
<stop stop-color="#FA9A9A"/>
<stop offset="1" stop-color="#D60335"/>
</linearGradient>
<linearGradient id="paint1_linear_4_44" x1="640" y1="263" x2="640" y2="689" gradientUnits="userSpaceOnUse">
<stop stop-color="#FA9A9A"/>
<stop offset="1" stop-color="#D60335"/>
</linearGradient>
<linearGradient id="paint2_linear_4_44" x1="640" y1="263" x2="640" y2="689" gradientUnits="userSpaceOnUse">
<stop stop-color="#FA9A9A"/>
<stop offset="1" stop-color="#D60335"/>
</linearGradient>
<linearGradient id="paint3_linear_4_44" x1="640" y1="263" x2="640" y2="689" gradientUnits="userSpaceOnUse">
<stop stop-color="#FA9A9A"/>
<stop offset="1" stop-color="#D60335"/>
</linearGradient>
<linearGradient id="paint4_linear_4_44" x1="640" y1="263" x2="640" y2="689" gradientUnits="userSpaceOnUse">
<stop stop-color="#FA9A9A"/>
<stop offset="1" stop-color="#D60335"/>
</linearGradient>
<linearGradient id="paint5_linear_4_44" x1="640" y1="263" x2="640" y2="689" gradientUnits="userSpaceOnUse">
<stop stop-color="#FA9A9A"/>
<stop offset="1" stop-color="#D60335"/>
</linearGradient>
</defs>
</svg>
