<svg width="1280" height="237" viewBox="0 0 1280 237" fill="none" xmlns="http://www.w3.org/2000/svg">
<path d="M301.719 63.3633C301.719 61.3451 302.435 59.6198 303.867 58.1875C305.299 56.7552 307.025 56.0391 309.043 56.0391L400.547 56.1367H400.645C402.663 56.1367 404.388 56.8529 405.82 58.2852C407.253 59.7174 407.969 61.4427 407.969 63.4609C407.969 65.4792 407.253 67.2044 405.82 68.6367C404.388 70.069 402.663 70.7852 400.645 70.7852H400.547L316.367 70.6875L316.465 116.586C316.66 116.586 316.823 116.586 316.953 116.586C317.148 116.521 317.311 116.488 317.441 116.488L392.539 116.977C394.622 116.977 396.348 117.693 397.715 119.125C399.147 120.492 399.863 122.38 399.863 124.789C399.863 126.612 399.115 128.207 397.617 129.574C396.12 130.941 394.427 131.625 392.539 131.625H392.441L317.344 131.137H316.562L316.66 176.547L400.547 176.449H400.645C402.663 176.449 404.388 177.165 405.82 178.598C407.253 180.03 407.969 181.755 407.969 183.773C407.969 185.792 407.253 187.517 405.82 188.949C404.388 190.382 402.663 191.098 400.645 191.098H400.547L309.336 191.195C307.318 191.195 305.592 190.479 304.16 189.047C302.728 187.615 302.012 185.889 302.012 183.871L301.719 63.3633ZM429.941 70.6875C427.923 70.6875 426.198 69.9714 424.766 68.5391C423.333 67.0417 422.617 65.2839 422.617 63.2656C422.617 61.3776 423.398 59.6523 424.961 58.0898C426.589 56.5273 428.021 55.7461 429.258 55.7461L539.219 55.9414C541.172 55.9414 542.865 56.6576 544.297 58.0898C545.794 59.5221 546.543 61.2148 546.543 63.168C546.543 65.056 545.99 66.651 544.883 67.9531L446.348 176.449L536.387 176.938H536.484C538.633 176.938 540.391 177.686 541.758 179.184C543.125 180.681 543.809 182.536 543.809 184.75C543.809 187.159 542.832 188.819 540.879 189.73C538.926 190.642 537.396 191.098 536.289 191.098C536.224 191.098 536.191 191.065 536.191 191L430.723 191.098C428.704 191.098 426.979 190.414 425.547 189.047C424.115 187.615 423.398 185.889 423.398 183.871C423.398 181.983 423.952 180.388 425.059 179.086L523.594 70.5898L430.039 70.6875H429.941ZM568.125 132.113H642.539C644.427 132.113 646.022 132.797 647.324 134.164C648.691 135.466 649.375 137.061 649.375 138.949C649.375 140.837 648.691 142.465 647.324 143.832C646.022 145.134 644.427 145.785 642.539 145.785H568.125C566.237 145.785 564.609 145.134 563.242 143.832C561.94 142.465 561.289 140.837 561.289 138.949C561.289 137.061 561.94 135.466 563.242 134.164C564.609 132.797 566.237 132.113 568.125 132.113ZM670.859 63.168C670.859 61.1497 671.576 59.4245 673.008 57.9922C674.44 56.5599 676.165 55.8438 678.184 55.8438L757.773 55.7461H757.871C759.889 55.7461 761.615 56.4622 763.047 57.8945C764.479 59.3268 765.195 61.0521 765.195 63.0703C765.195 65.0885 764.479 66.8138 763.047 68.2461C761.615 69.6784 759.889 70.3945 757.871 70.3945H757.773L685.508 70.4922L685.605 111.605C685.931 111.605 686.191 111.573 686.387 111.508L738.926 111.02H740C741.693 111.02 743.158 111.801 744.395 113.363C745.697 114.926 746.348 116.391 746.348 117.758C746.348 119.971 745.664 121.859 744.297 123.422C742.93 124.919 741.172 125.668 739.023 125.668L686.582 126.156H685.703L685.801 184.652V184.848C685.801 186.866 685.085 188.591 683.652 190.023C682.22 191.456 680.495 192.172 678.477 192.172C676.458 192.172 674.733 191.456 673.301 190.023C671.868 188.591 671.152 186.866 671.152 184.848V184.75L670.859 63.168ZM844.883 55.6484C854.453 55.6484 863.21 57.4062 871.152 60.9219C879.16 64.4375 886.061 69.3529 891.855 75.668C897.65 81.9831 902.109 89.3398 905.234 97.7383C908.424 106.072 910.02 115.089 910.02 124.789C910.02 137.745 907.285 149.398 901.816 159.75C896.348 170.036 888.73 178.174 878.965 184.164C869.199 190.154 857.839 193.148 844.883 193.148C831.732 193.148 820.273 190.186 810.508 184.262C800.742 178.272 793.19 170.134 787.852 159.848C782.513 149.561 779.844 137.875 779.844 124.789C779.844 115.284 781.439 106.365 784.629 98.0312C787.819 89.6328 792.311 82.276 798.105 75.9609C803.965 69.5807 810.866 64.6003 818.809 61.0195C826.751 57.4388 835.443 55.6484 844.883 55.6484ZM844.883 70.5898C834.727 70.5898 825.872 72.9661 818.32 77.7188C810.768 82.4062 804.909 88.8516 800.742 97.0547C796.576 105.193 794.492 114.438 794.492 124.789C794.492 131.951 795.762 138.754 798.301 145.199C800.905 151.579 804.486 157.276 809.043 162.289C813.665 167.237 819.004 171.143 825.059 174.008C831.178 176.872 837.786 178.305 844.883 178.305C851.914 178.305 858.49 176.807 864.609 173.812C870.794 170.818 876.198 166.781 880.82 161.703C885.508 156.625 889.154 150.896 891.758 144.516C894.362 138.135 895.664 131.56 895.664 124.789C895.664 114.047 893.418 104.607 888.926 96.4688C884.499 88.3307 878.444 81.9831 870.762 77.4258C863.145 72.8685 854.518 70.5898 844.883 70.5898ZM939.219 190.902C937.201 190.902 935.475 190.186 934.043 188.754C932.611 187.322 931.895 185.596 931.895 183.578L931.602 63.5586V63.4609C931.602 61.4427 932.318 59.7174 933.75 58.2852C935.182 56.8529 936.908 56.1367 938.926 56.1367C940.944 56.1367 942.669 56.8529 944.102 58.2852C945.534 59.7174 946.25 61.4427 946.25 63.4609V63.5586L946.543 176.254H1023.01C1025.03 176.254 1026.75 176.97 1028.18 178.402C1029.62 179.835 1030.33 181.56 1030.33 183.578C1030.33 185.596 1029.62 187.322 1028.18 188.754C1026.75 190.186 1025.03 190.902 1023.01 190.902H939.219ZM1054.45 193.051C1052.43 193.051 1050.71 192.335 1049.28 190.902C1047.85 189.47 1047.13 187.745 1047.13 185.727V185.629L1047.03 62.9727V62.875C1047.03 60.987 1047.71 59.2943 1049.08 57.7969C1050.51 56.2995 1052.11 55.5508 1053.87 55.5508C1056.28 55.5508 1058.16 56.2669 1059.53 57.6992C1060.96 59.0664 1061.68 60.7917 1061.68 62.875V62.9727L1061.78 185.629V185.727C1061.78 187.745 1061.06 189.47 1059.63 190.902C1058.2 192.335 1056.47 193.051 1054.45 193.051ZM1148.4 55.6484C1157.97 55.6484 1166.73 57.4062 1174.67 60.9219C1182.68 64.4375 1189.58 69.3529 1195.37 75.668C1201.17 81.9831 1205.62 89.3398 1208.75 97.7383C1211.94 106.072 1213.54 115.089 1213.54 124.789C1213.54 137.745 1210.8 149.398 1205.33 159.75C1199.86 170.036 1192.25 178.174 1182.48 184.164C1172.71 190.154 1161.35 193.148 1148.4 193.148C1135.25 193.148 1123.79 190.186 1114.02 184.262C1104.26 178.272 1096.71 170.134 1091.37 159.848C1086.03 149.561 1083.36 137.875 1083.36 124.789C1083.36 115.284 1084.95 106.365 1088.14 98.0312C1091.33 89.6328 1095.83 82.276 1101.62 75.9609C1107.48 69.5807 1114.38 64.6003 1122.32 61.0195C1130.27 57.4388 1138.96 55.6484 1148.4 55.6484ZM1148.4 70.5898C1138.24 70.5898 1129.39 72.9661 1121.84 77.7188C1114.28 82.4062 1108.42 88.8516 1104.26 97.0547C1100.09 105.193 1098.01 114.438 1098.01 124.789C1098.01 131.951 1099.28 138.754 1101.82 145.199C1104.42 151.579 1108 157.276 1112.56 162.289C1117.18 167.237 1122.52 171.143 1128.57 174.008C1134.69 176.872 1141.3 178.305 1148.4 178.305C1155.43 178.305 1162.01 176.807 1168.12 173.812C1174.31 170.818 1179.71 166.781 1184.34 161.703C1189.02 156.625 1192.67 150.896 1195.27 144.516C1197.88 138.135 1199.18 131.56 1199.18 124.789C1199.18 114.047 1196.93 104.607 1192.44 96.4688C1188.01 88.3307 1181.96 81.9831 1174.28 77.4258C1166.66 72.8685 1158.03 70.5898 1148.4 70.5898Z" fill="black"/>
<path d="M81 51.6901C81 47.6452 84.1322 44.3662 87.9959 44.3662H192.235C196.098 44.3662 199.23 47.6452 199.23 51.6901V75.493C199.23 79.5379 196.098 82.8169 192.235 82.8169H87.9959C84.1322 82.8169 81 79.5379 81 75.493V51.6901Z" fill="url(#paint0_linear_4_50)"/>
<path d="M132.77 109.915C132.77 105.871 135.902 102.592 139.765 102.592H244.004C247.868 102.592 251 105.871 251 109.915V133.718C251 137.763 247.868 141.042 244.004 141.042H139.765C135.902 141.042 132.77 137.763 132.77 133.718V109.915Z" fill="url(#paint1_linear_4_50)"/>
<path d="M251 63.4084C251 74.1274 242.7 82.8169 232.461 82.8169C222.222 82.8169 213.922 74.1274 213.922 63.4084C213.922 52.6895 222.222 44 232.461 44C242.7 44 251 52.6895 251 63.4084Z" fill="url(#paint2_linear_4_50)"/>
<path d="M81 168.873C81 164.828 84.1322 161.549 87.9959 161.549H192.235C196.098 161.549 199.23 164.828 199.23 168.873V192.676C199.23 196.721 196.098 200 192.235 200H87.9959C84.1322 200 81 196.721 81 192.676V168.873Z" fill="url(#paint3_linear_4_50)"/>
<path d="M251 180.592C251 191.311 242.7 200 232.461 200C222.222 200 213.922 191.311 213.922 180.592C213.922 169.873 222.222 161.183 232.461 161.183C242.7 161.183 251 169.873 251 180.592Z" fill="url(#paint4_linear_4_50)"/>
<path d="M118.078 122C118.078 132.719 109.778 141.408 99.5391 141.408C89.3002 141.408 81 132.719 81 122C81 111.281 89.3002 102.592 99.5391 102.592C109.778 102.592 118.078 111.281 118.078 122Z" fill="url(#paint5_linear_4_50)"/>
<defs>
<linearGradient id="paint0_linear_4_50" x1="166" y1="44" x2="166" y2="200" gradientUnits="userSpaceOnUse">
<stop stop-color="#FA9A9A"/>
<stop offset="1" stop-color="#D60335"/>
</linearGradient>
<linearGradient id="paint1_linear_4_50" x1="166" y1="44" x2="166" y2="200" gradientUnits="userSpaceOnUse">
<stop stop-color="#FA9A9A"/>
<stop offset="1" stop-color="#D60335"/>
</linearGradient>
<linearGradient id="paint2_linear_4_50" x1="166" y1="44" x2="166" y2="200" gradientUnits="userSpaceOnUse">
<stop stop-color="#FA9A9A"/>
<stop offset="1" stop-color="#D60335"/>
</linearGradient>
<linearGradient id="paint3_linear_4_50" x1="166" y1="44" x2="166" y2="200" gradientUnits="userSpaceOnUse">
<stop stop-color="#FA9A9A"/>
<stop offset="1" stop-color="#D60335"/>
</linearGradient>
<linearGradient id="paint4_linear_4_50" x1="166" y1="44" x2="166" y2="200" gradientUnits="userSpaceOnUse">
<stop stop-color="#FA9A9A"/>
<stop offset="1" stop-color="#D60335"/>
</linearGradient>
<linearGradient id="paint5_linear_4_50" x1="166" y1="44" x2="166" y2="200" gradientUnits="userSpaceOnUse">
<stop stop-color="#FA9A9A"/>
<stop offset="1" stop-color="#D60335"/>
</linearGradient>
</defs>
</svg>
