<svg width="1190" height="1190" viewBox="0 0 1190 1190" fill="none" xmlns="http://www.w3.org/2000/svg">
<path d="M151 244.352C151 224.179 167.361 207.826 187.543 207.826H732.037C752.219 207.826 768.58 224.179 768.58 244.352V363.061C768.58 383.234 752.219 399.587 732.037 399.587H187.543C167.361 399.587 151 383.234 151 363.061V244.352Z" fill="url(#paint0_linear_4_45)"/>
<path d="M421.42 534.732C421.42 514.56 437.781 498.207 457.963 498.207H1002.46C1022.64 498.207 1039 514.56 1039 534.732V653.441C1039 673.614 1022.64 689.967 1002.46 689.967H457.963C437.781 689.967 421.42 673.614 421.42 653.441V534.732Z" fill="url(#paint1_linear_4_45)"/>
<path d="M1039 302.793C1039 356.251 995.643 399.587 942.16 399.587C888.678 399.587 845.321 356.251 845.321 302.793C845.321 249.336 888.678 206 942.16 206C995.643 206 1039 249.336 1039 302.793Z" fill="url(#paint2_linear_4_45)"/>
<path d="M151 828.765C151 808.593 167.361 792.239 187.543 792.239H732.037C752.219 792.239 768.58 808.593 768.58 828.765V947.474C768.58 967.647 752.219 984 732.037 984H187.543C167.361 984 151 967.647 151 947.474V828.765Z" fill="url(#paint3_linear_4_45)"/>
<path d="M1039 887.207C1039 940.664 995.643 984 942.16 984C888.678 984 845.321 940.664 845.321 887.207C845.321 833.749 888.678 790.413 942.16 790.413C995.643 790.413 1039 833.749 1039 887.207Z" fill="url(#paint4_linear_4_45)"/>
<path d="M344.679 595C344.679 648.458 301.322 691.793 247.84 691.793C194.357 691.793 151 648.458 151 595C151 541.542 194.357 498.207 247.84 498.207C301.322 498.207 344.679 541.542 344.679 595Z" fill="url(#paint5_linear_4_45)"/>
<defs>
<linearGradient id="paint0_linear_4_45" x1="595" y1="206" x2="595" y2="984" gradientUnits="userSpaceOnUse">
<stop stop-color="#FA9A9A"/>
<stop offset="1" stop-color="#D60335"/>
</linearGradient>
<linearGradient id="paint1_linear_4_45" x1="595" y1="206" x2="595" y2="984" gradientUnits="userSpaceOnUse">
<stop stop-color="#FA9A9A"/>
<stop offset="1" stop-color="#D60335"/>
</linearGradient>
<linearGradient id="paint2_linear_4_45" x1="595" y1="206" x2="595" y2="984" gradientUnits="userSpaceOnUse">
<stop stop-color="#FA9A9A"/>
<stop offset="1" stop-color="#D60335"/>
</linearGradient>
<linearGradient id="paint3_linear_4_45" x1="595" y1="206" x2="595" y2="984" gradientUnits="userSpaceOnUse">
<stop stop-color="#FA9A9A"/>
<stop offset="1" stop-color="#D60335"/>
</linearGradient>
<linearGradient id="paint4_linear_4_45" x1="595" y1="206" x2="595" y2="984" gradientUnits="userSpaceOnUse">
<stop stop-color="#FA9A9A"/>
<stop offset="1" stop-color="#D60335"/>
</linearGradient>
<linearGradient id="paint5_linear_4_45" x1="595" y1="206" x2="595" y2="984" gradientUnits="userSpaceOnUse">
<stop stop-color="#FA9A9A"/>
<stop offset="1" stop-color="#D60335"/>
</linearGradient>
</defs>
</svg>
